<svg id="Layer_1" data-name="Layer 1" xmlns="http://www.w3.org/2000/svg" viewBox="0 0 220.02 52"><defs><style>.cls-1,.cls-3{fill:#fff;}.cls-1{stroke:#dbdbdb;stroke-width:0.9px;}.cls-2{fill:#2a2a6c;}.cls-4{fill:#296db6;}.cls-5{opacity:0;}.cls-6{fill:#f26122;}.cls-7{fill:#ea1d25;}.cls-8{fill:#f69e1e;}.cls-9{fill:#ee7623;}.cls-10{fill:#231f20;}</style></defs><title>PaymentMethods</title><g id="Final-Designs-Revised"><g id="Desktop_ProductPage-Wide" data-name="Desktop/ProductPage-Wide"><g id="Footer"><g id="Group-2"><g id="visa-light-large"><rect id="card_bg" data-name="card bg" class="cls-1" x="8.2" y="11.5" width="43" height="29" rx="3.6"/><path id="visa-logo" class="cls-2" d="M29.58,21.82l-1.8,8.38H25.63l1.8-8.38Zm9,5.44,1.13-3.15.65,3.15Zm2.39,3h2l-1.74-8.38H39.44a1,1,0,0,0-.9.62l-3.21,7.76h2.26L38,29h2.7Zm-5.59-2.72c0-2.25-3-2.42-3-3.32,0-.3.29-.62.9-.7a4,4,0,0,1,2.11.37l.38-1.81a5.81,5.81,0,0,0-2-.37c-2.12,0-3.58,1.14-3.58,2.77,0,1.21,1.06,1.88,1.87,2.28s1.12.67,1.11,1c0,.56-.66.81-1.28.82a4.53,4.53,0,0,1-2.19-.54l-.38,1.81a6.24,6.24,0,0,0,2.38.44c2.25,0,3.73-1.12,3.74-2.86m-8.88-5.65-3.48,8.39H20.74L19,23.48a.88.88,0,0,0-.51-.73A8.33,8.33,0,0,0,16.41,22l.05-.24h3.65a1,1,0,0,1,1,.85L22,27.5l2.23-5.7Z"/></g></g></g></g></g><g id="Final-Designs-Revised-2" data-name="Final-Designs-Revised"><g id="Desktop_ProductPage-Wide-2" data-name="Desktop/ProductPage-Wide"><g id="Footer-2" data-name="Footer"><g id="Group-2-2" data-name="Group-2"><g id="americanexpress-color-large"><rect id="Rectangle" class="cls-3" x="116.2" y="11.5" width="43" height="29" rx="3.6"/><g id="amex"><path id="Path" class="cls-4" d="M124.16,27.72v7.4h7.4l.77-1.11.75,1.11h4.52V33.45h.5a4.42,4.42,0,0,0,1.35-.2v1.87h3.07V33.79l1,1.33h14a2.94,2.94,0,0,0,1.63-.46v3.12a3.58,3.58,0,0,1-3.48,2.72H119.79a3.61,3.61,0,0,1-3.59-3.62V25.46h2l.43-1.11h1l.41,1.11h16.43V24.13l1,1.33h4.31v-.67a3.58,3.58,0,0,0,2.17.67h2.57l.41-1.11h1l.44,1.11h4.39V24l.9,1.44h3v-7.4h-3.22v1.51l-1-1.51h-2.81V20l-.9-1.9H144.1a3.49,3.49,0,0,0-2.24.74v-.74h-15.8l-.54,1.6L125,18H121.4v1.9l-.84-1.9h-2.92l-1.44,3.44V15.13a3.61,3.61,0,0,1,3.59-3.63H155.7a3.58,3.58,0,0,1,3.5,2.72v13.5H133.1l-.77,1.09-.76-1.09Z"/><path id="Shape" class="cls-4" d="M129.38,30V28.86h-4.06V34h4.06V32.89h-2.84V32h2.79v-1.1h-2.79V30ZM133,31.44l2-2.54h-1.49l-1.25,1.58-1.25-1.62h-1.52l2.05,2.58-2,2.54h1.47l1.22-1.64L133.55,34h1.54Zm5.05-2.54H135.3V34h1.23V32.29h1.52a1.62,1.62,0,0,0,1.27-.46,1.82,1.82,0,0,0,0-2.52,1.64,1.64,0,0,0-1.26-.45ZM138,31.24h-1.45V30H138a.63.63,0,0,1,0,1.25Zm5.63.9a1.62,1.62,0,0,0,1.41-1.8,1.6,1.6,0,0,0-1.78-1.42H140.5V34h1.22V32.16h.55L143.78,34h1.53Zm-.48-1h-1.41V30h1.41a.55.55,0,0,1,.44.14.57.57,0,0,1,0,.85.55.55,0,0,1-.44.14ZM149.67,30V28.92h-4.08V34h4.08V32.89h-2.84V32h2.77v-1.1h-2.77V30Zm3.38.9h-1.18a.46.46,0,0,1-.47-.19.49.49,0,0,1,0-.52.46.46,0,0,1,.47-.19h2.18l.48-1.09h-2.62a1.55,1.55,0,0,0-1.23.4,1.57,1.57,0,0,0-.51,1.19,1.44,1.44,0,0,0,.44,1.13,1.41,1.41,0,0,0,1.14.38h1.18a.45.45,0,0,1,.47.19.49.49,0,0,1,0,.52.45.45,0,0,1-.47.19h-2.61V34h2.61a1.54,1.54,0,0,0,1.22-.44,1.57,1.57,0,0,0,.47-1.23,1.41,1.41,0,0,0-.44-1.11,1.38,1.38,0,0,0-1.13-.35Zm3.49-.9h2.18l.48-1.11h-2.62a1.54,1.54,0,0,0-1.23.4,1.58,1.58,0,0,0-.51,1.2,1.42,1.42,0,0,0,1.58,1.5h1.15a.44.44,0,0,1,.47.2.47.47,0,0,1,0,.51.46.46,0,0,1-.47.2H155V34h2.57a1.57,1.57,0,0,0,1.65-1.05V31.73a1.43,1.43,0,0,0-1.47-.85h-1.22a.46.46,0,0,1-.47-.71.45.45,0,0,1,.47-.2Z"/><path id="Shape-2" data-name="Shape" class="cls-4" d="M120,19.2H118.4l-2.2,5.11h1.33l.46-1h2.36l.43,1.07h1.38Zm-1.66,3.05.5-1.2.32-.8.32.8.49,1.2Zm8.35-3.05-1,3-.16.56h0l-.16-.56-1-3h-2v5.11h1.19V20.18h0l.25.78L125,24.31h1.08L127.23,21l.23-.78h0v4.13h1.18V19.2Zm7,1.09V19.2h-4v5.11h4V23.23h-2.84v-.91h2.77v-1.1h-2.77v-.91Zm4,2.14A1.59,1.59,0,0,0,139,20.82a1.6,1.6,0,0,0-.53-1.22,1.57,1.57,0,0,0-1.26-.4h-2.73v5.11h1.24V22.5h.56l1.5,1.81h1.53Zm-.48-1h-1.42V20.29h1.42a.53.53,0,0,1,.43.14.57.57,0,0,1,.19.42.53.53,0,0,1-.18.43.51.51,0,0,1-.44.13Zm2.45-2.21v5.11h1.23V19.2Zm4.48,1.11h1.32V19.2H144a2.26,2.26,0,0,0-1.78.7,2.31,2.31,0,0,0-.64,1.82v.08a2.32,2.32,0,0,0,.6,1.81,2.22,2.22,0,0,0,1.75.7H144l.5-1.08h-.41a1.22,1.22,0,0,1-1-.41,1.28,1.28,0,0,1-.33-1v-.08a1.28,1.28,0,0,1,.33-1,1.26,1.26,0,0,1,1-.4Zm4.28-1.11h-1.61l-2.17,5.11h1.31l.43-1h2.39l.43,1.07h1.38Zm-1.65,3.05.47-1.2.32-.8h0l.31.8.48,1.2Zm7.67-3.05v3.34h0L154,22l-1.79-2.72h-1.49v5.11H152V20.87h0l.32.56,1.87,2.88h1.48V19.2Z"/></g></g></g></g></g></g><g id="Final-Designs-Revised-3" data-name="Final-Designs-Revised"><g id="Desktop_ProductPage-Wide-3" data-name="Desktop/ProductPage-Wide"><g id="Footer-3" data-name="Footer"><g id="Group-2-3" data-name="Group-2"><g id="mastercard-color_large" data-name="mastercard-color large"><rect id="card_bg-2" data-name="card bg" class="cls-1" x="62.2" y="11.5" width="43" height="29" rx="3.6"/><g id="mastercard"><g id="Group" class="cls-5"><rect id="Rectangle-2" data-name="Rectangle" class="cls-3" x="66.37" y="14.4" width="34.68" height="23.2"/></g><rect id="Rectangle-3" data-name="Rectangle" class="cls-6" x="79.13" y="18.44" width="9.15" height="15.12"/><path id="Path-2" data-name="Path" class="cls-7" d="M80.12,26a9.61,9.61,0,0,1,3.58-7.56,9.42,9.42,0,0,0-12.86,1,9.69,9.69,0,0,0,0,13,9.42,9.42,0,0,0,12.86,1A9.61,9.61,0,0,1,80.12,26Z"/><path id="Shape-3" data-name="Shape" class="cls-8" d="M98.18,32v-.34h.15v-.07H98v.07h.14V32Zm.68,0v-.41h-.1l-.12.29-.13-.29h-.1V32h.07v-.31l.12.27h.08l.11-.27V32Z"/><path id="Path-3" data-name="Path" class="cls-8" d="M99.07,26a9.62,9.62,0,0,1-5.35,8.64,9.41,9.41,0,0,1-10-1.08,9.7,9.7,0,0,0,1.6-13.5,9.81,9.81,0,0,0-1.6-1.62,9.41,9.41,0,0,1,10-1.08A9.62,9.62,0,0,1,99.07,26Z"/></g></g></g></g></g></g><g id="Final-Designs-Revised-4" data-name="Final-Designs-Revised"><g id="Desktop_ProductPage-Wide-4" data-name="Desktop/ProductPage-Wide"><g id="Footer-4" data-name="Footer"><g id="Group-2-4" data-name="Group-2"><g id="discover-light-large"><path id="card_bg-3" data-name="card bg" class="cls-1" d="M212.2,15.12V36.87a3.6,3.6,0,0,1-3.58,3.63H172.79a3.38,3.38,0,0,1-1.22-.22,3.63,3.63,0,0,1-2.37-3.41V15.12a3.61,3.61,0,0,1,3.59-3.62h35.83A3.6,3.6,0,0,1,212.2,15.12Z"/><g id="discover"><path id="Path-4" data-name="Path" class="cls-9" d="M212.2,26V36.84a3.65,3.65,0,0,1-3.63,3.66H172.23a3.53,3.53,0,0,1-1.24-.22c3.06-.44,6-1,8.89-1.61.76-.14,1.51-.33,2.25-.49,12-2.76,22.4-6.82,28.25-10.81C211,26.91,211.66,26.46,212.2,26Z"/><path id="Shape-4" data-name="Shape" class="cls-10" d="M174.42,21.14h-1.63v5.77h1.63a3,3,0,0,0,2.06-.66,2.94,2.94,0,0,0,.82-3.33,2.88,2.88,0,0,0-2.88-1.81Zm1.32,4.35a2,2,0,0,1-1.54.51h-.29V22.12h.29a2,2,0,0,1,1.54.47,1.91,1.91,0,0,1,.63,1.45,2,2,0,0,1-.63,1.45Z"/><rect id="Rectangle-4" data-name="Rectangle" class="cls-10" x="178.03" y="21.13" width="1.12" height="5.82"/><path id="Path-5" data-name="Path" class="cls-10" d="M181.9,23.36c-.68-.24-.9-.41-.9-.73a.76.76,0,0,1,.83-.64,1.16,1.16,0,0,1,.9.47l.58-.77a2.45,2.45,0,0,0-1.68-.66,1.69,1.69,0,0,0-1.79,1.67c0,.81.35,1.22,1.4,1.6a4.45,4.45,0,0,1,.78.33.69.69,0,0,1,.34.6.84.84,0,0,1-.27.61.8.8,0,0,1-.62.21,1.31,1.31,0,0,1-1.22-.78l-.73.71a2.24,2.24,0,0,0,2,1.11,1.85,1.85,0,0,0,1.4-.51,1.89,1.89,0,0,0,.58-1.4C183.54,24.26,183.17,23.83,181.9,23.36Z"/><path id="Path-6" data-name="Path" class="cls-10" d="M183.9,24a3,3,0,0,0,.89,2.17,2.93,2.93,0,0,0,2.15.87,3,3,0,0,0,1.41-.34V25.41a1.83,1.83,0,0,1-1.36.64,1.9,1.9,0,0,1-1.93-2,1.91,1.91,0,0,1,1.88-2,1.88,1.88,0,0,1,1.41.65V21.36A2.81,2.81,0,0,0,187,21a3,3,0,0,0-2.16.88A3.08,3.08,0,0,0,183.9,24Z"/><polygon id="Path-7" data-name="Path" class="cls-10" points="197.24 25.04 195.7 21.13 194.48 21.13 196.92 27.1 197.52 27.1 200.01 21.13 198.79 21.13 197.24 25.04"/><polygon id="Path-8" data-name="Path" class="cls-10" points="200.51 26.95 203.7 26.95 203.7 25.96 201.63 25.96 201.63 24.4 203.62 24.4 203.62 23.41 201.63 23.41 201.63 22.12 203.7 22.12 203.7 21.13 200.51 21.13 200.51 26.95"/><path id="Shape-5" data-name="Shape" class="cls-10" d="M206.83,24.51a1.54,1.54,0,0,0,1.3-1.66c0-1.09-.73-1.71-2-1.71h-1.65v5.77h1.13V24.6h.13l1.56,2.31h1.36Zm-.9-.7h-.36V22.05h.36c.68,0,1.06.29,1.06.9S206.59,23.81,205.93,23.81Z"/><path id="Path-9" data-name="Path" class="cls-9" d="M194.81,24A3.06,3.06,0,1,1,191.76,21,3.06,3.06,0,0,1,194.81,24Z"/><path id="Shape-6" data-name="Shape" class="cls-10" d="M208.65,21.41a.15.15,0,0,0,.12-.14c0-.12-.08-.18-.22-.18h-.2v.58h.14v-.24l.18.24h.16Zm-.12-.08h0v-.12h0c.06,0,.1,0,.1.06s0,.06-.08.06Z"/><path id="Shape-7" data-name="Shape" class="cls-10" d="M208.61,20.89a.5.5,0,1,0,.52.5A.48.48,0,0,0,209,21,.47.47,0,0,0,208.61,20.89Zm.26.8a.31.31,0,0,1-.26.12.41.41,0,0,1-.28-.13.43.43,0,0,1-.1-.29.38.38,0,1,1,.76,0,.42.42,0,0,1-.12.3Z"/></g></g></g></g></g></g></svg>